<svg xmlns="http://www.w3.org/2000/svg" viewBox="0 0 64 64" fill="none">
  <rect x="22" y="52" width="20" height="4" rx="1" fill="#8b5cf6"/>
  <rect x="26" y="18" width="12" height="34" rx="1" fill="#8b5cf6"/>
  <path d="M20 18h24l-3-4H23l-3 4z" fill="#8b5cf6"/>
  <rect x="20" y="16" width="24" height="3" rx="1" fill="#a78bfa"/>
  <circle cx="14" cy="24" r="3" fill="#8b5cf6"/>
  <circle cx="10" cy="36" r="2.5" fill="#8b5cf6" opacity="0.7"/>
  <circle cx="16" cy="46" r="2" fill="#8b5cf6" opacity="0.5"/>
  <circle cx="50" cy="24" r="3" fill="#8b5cf6"/>
  <circle cx="54" cy="36" r="2.5" fill="#8b5cf6" opacity="0.7"/>
  <circle cx="48" cy="46" r="2" fill="#8b5cf6" opacity="0.5"/>
  <line x1="17" y1="24" x2="26" y2="26" stroke="#8b5cf6" stroke-width="1.5" opacity="0.6"/>
  <line x1="14" y1="27" x2="10" y2="33.5" stroke="#8b5cf6" stroke-width="1.2" opacity="0.5"/>
  <line x1="12.5" y1="36" x2="16" y2="44" stroke="#8b5cf6" stroke-width="1.2" opacity="0.4"/>
  <line x1="13" y1="36" x2="26" y2="38" stroke="#8b5cf6" stroke-width="1.2" opacity="0.5"/>
  <line x1="47" y1="24" x2="38" y2="26" stroke="#8b5cf6" stroke-width="1.5" opacity="0.6"/>
  <line x1="50" y1="27" x2="54" y2="33.5" stroke="#8b5cf6" stroke-width="1.2" opacity="0.5"/>
  <line x1="51.5" y1="36" x2="48" y2="44" stroke="#8b5cf6" stroke-width="1.2" opacity="0.4"/>
  <line x1="51" y1="36" x2="38" y2="38" stroke="#8b5cf6" stroke-width="1.2" opacity="0.5"/>
  <circle cx="32" cy="8" r="4" fill="#a78bfa"/>
  <circle cx="32" cy="8" r="2" fill="#c4b5fd"/>
  <line x1="32" y1="12" x2="32" y2="16" stroke="#a78bfa" stroke-width="2"/>
  <line x1="14" y1="21" x2="29" y2="9" stroke="#8b5cf6" stroke-width="1.2" opacity="0.4"/>
  <line x1="50" y1="21" x2="35" y2="9" stroke="#8b5cf6" stroke-width="1.2" opacity="0.4"/>
</svg>
